# WaveFront *.obj file (generated by Cinema 4D)

mtllib ./flower_0.mtl

v -0.15000000596046 0.10000000149012 0.05000000074506
v -0.15000000596046 0.10000000149012 -0.05000000074506
v -0.15000000596046 0.20000000298023 0.05000000074506
v -0.15000000596046 0.20000000298023 -0.05000000074506
v -0.05000000074506 0 0.05000000074506
v -0.05000000074506 0 -0.05000000074506
v -0.05000000074506 0.10000000149012 0.15000000596046
v -0.05000000074506 0.10000000149012 0.05000000074506
v -0.05000000074506 0.10000000149012 -0.05000000074506
v -0.05000000074506 0.10000000149012 -0.15000000596046
v -0.05000000074506 0.20000000298023 0.15000000596046
v -0.05000000074506 0.20000000298023 0.05000000074506
v -0.05000000074506 0.20000000298023 -0.05000000074506
v -0.05000000074506 0.20000000298023 -0.15000000596046
v 0.05000000074506 0 0.05000000074506
v 0.05000000074506 0 -0.05000000074506
v 0.05000000074506 0.10000000149012 0.15000000596046
v 0.05000000074506 0.10000000149012 0.05000000074506
v 0.05000000074506 0.10000000149012 -0.05000000074506
v 0.05000000074506 0.10000000149012 -0.15000000596046
v 0.05000000074506 0.20000000298023 0.15000000596046
v 0.05000000074506 0.20000000298023 0.05000000074506
v 0.05000000074506 0.20000000298023 -0.05000000074506
v 0.05000000074506 0.20000000298023 -0.15000000596046
v 0.15000000596046 0.10000000149012 0.05000000074506
v 0.15000000596046 0.10000000149012 -0.05000000074506
v 0.15000000596046 0.20000000298023 0.05000000074506
v 0.15000000596046 0.20000000298023 -0.05000000074506
# 28 vertices

vn -1 0 0
vn 1 0 0
vn 0 0 1
vn 0 0 -1
vn 0 -1 0
vn 0 1 0
# 6 normals

vt 0.02929689921439 0.5 0
# 1 texture coordinate

o Polygon
usemtl palette
f 3/1/1 2/1/1 1/1/1
f 4/1/1 2/1/1 3/1/1
f 8/1/1 6/1/1 5/1/1
f 9/1/1 6/1/1 8/1/1
f 11/1/1 8/1/1 7/1/1
f 12/1/1 8/1/1 11/1/1
f 13/1/1 10/1/1 9/1/1
f 14/1/1 10/1/1 13/1/1
f 15/1/2 16/1/2 18/1/2
f 18/1/2 16/1/2 19/1/2
f 17/1/2 18/1/2 21/1/2
f 21/1/2 18/1/2 22/1/2
f 19/1/2 20/1/2 23/1/2
f 23/1/2 20/1/2 24/1/2
f 25/1/2 26/1/2 27/1/2
f 27/1/2 26/1/2 28/1/2
f 17/1/3 11/1/3 7/1/3
f 21/1/3 11/1/3 17/1/3
f 8/1/3 3/1/3 1/1/3
f 12/1/3 3/1/3 8/1/3
f 15/1/3 8/1/3 5/1/3
f 18/1/3 8/1/3 15/1/3
f 25/1/3 22/1/3 18/1/3
f 27/1/3 22/1/3 25/1/3
f 2/1/4 4/1/4 9/1/4
f 9/1/4 4/1/4 13/1/4
f 6/1/4 9/1/4 16/1/4
f 16/1/4 9/1/4 19/1/4
f 19/1/4 23/1/4 26/1/4
f 26/1/4 23/1/4 28/1/4
f 10/1/4 14/1/4 20/1/4
f 20/1/4 14/1/4 24/1/4
f 6/1/5 15/1/5 5/1/5
f 16/1/5 15/1/5 6/1/5
f 8/1/5 17/1/5 7/1/5
f 18/1/5 17/1/5 8/1/5
f 2/1/5 8/1/5 1/1/5
f 9/1/5 8/1/5 2/1/5
f 19/1/5 25/1/5 18/1/5
f 26/1/5 25/1/5 19/1/5
f 10/1/5 19/1/5 9/1/5
f 20/1/5 19/1/5 10/1/5
f 11/1/6 21/1/6 12/1/6
f 12/1/6 21/1/6 22/1/6
f 3/1/6 12/1/6 4/1/6
f 22/1/6 27/1/6 4/1/6
f 12/1/6 22/1/6 4/1/6
f 4/1/6 27/1/6 13/1/6
f 13/1/6 27/1/6 23/1/6
f 23/1/6 27/1/6 28/1/6
f 13/1/6 23/1/6 14/1/6
f 14/1/6 23/1/6 24/1/6

