# WaveFront *.obj file (generated by Cinema 4D)

mtllib ./rock.mtl

v -0.55000001192093 0 0.34999999403954
v -0.55000001192093 0 -0.44999998807907
v -0.55000001192093 1 0.34999999403954
v -0.55000001192093 1 -0.44999998807907
v -0.44999998807907 0 0.55000001192093
v -0.44999998807907 0 0.34999999403954
v -0.44999998807907 0 -0.44999998807907
v -0.44999998807907 0 -0.55000001192093
v -0.44999998807907 0.80000001192093 0.55000001192093
v -0.44999998807907 0.80000001192093 0.44999998807907
v -0.44999998807907 1 0.44999998807907
v -0.44999998807907 1 0.34999999403954
v -0.44999998807907 1 -0.44999998807907
v -0.44999998807907 1 -0.55000001192093
v -0.44999998807907 1.10000002384186 0.34999999403954
v -0.44999998807907 1.10000002384186 -0.44999998807907
v -0.34999999403954 0.80000001192093 0.55000001192093
v -0.34999999403954 0.80000001192093 0.44999998807907
v -0.34999999403954 0.89999997615814 0.55000001192093
v -0.34999999403954 0.89999997615814 0.44999998807907
v -0.05000000074506 0.80000001192093 0.55000001192093
v -0.05000000074506 0.80000001192093 0.44999998807907
v -0.05000000074506 0.89999997615814 0.55000001192093
v -0.05000000074506 0.89999997615814 0.44999998807907
v 0.05000000074506 0.69999998807907 0.55000001192093
v 0.05000000074506 0.69999998807907 0.44999998807907
v 0.05000000074506 0.80000001192093 0.55000001192093
v 0.05000000074506 0.80000001192093 0.44999998807907
v 0.15000000596046 0 0.55000001192093
v 0.15000000596046 0 0.44999998807907
v 0.15000000596046 0.69999998807907 0.55000001192093
v 0.15000000596046 0.69999998807907 0.44999998807907
v 0.15000000596046 0.89999997615814 0.44999998807907
v 0.15000000596046 0.89999997615814 0.34999999403954
v 0.15000000596046 1 0.44999998807907
v 0.15000000596046 1 0.34999999403954
v 0.15000000596046 1 0.25
v 0.15000000596046 1.10000002384186 0.34999999403954
v 0.15000000596046 1.10000002384186 0.25
v 0.25 0.80000001192093 0.44999998807907
v 0.25 0.80000001192093 0.34999999403954
v 0.25 0.89999997615814 0.44999998807907
v 0.25 0.89999997615814 0.34999999403954
v 0.25 0.89999997615814 0.25
v 0.25 1 0.34999999403954
v 0.25 1 0.25
v 0.25 1 0.05000000074506
v 0.25 1.10000002384186 0.25
v 0.25 1.10000002384186 0.05000000074506
v 0.34999999403954 0 0.44999998807907
v 0.34999999403954 0 0.34999999403954
v 0.34999999403954 0 -0.44999998807907
v 0.34999999403954 0 -0.55000001192093
v 0.34999999403954 0.80000001192093 0.44999998807907
v 0.34999999403954 0.80000001192093 0.34999999403954
v 0.34999999403954 0.80000001192093 0.25
v 0.34999999403954 0.89999997615814 0.34999999403954
v 0.34999999403954 0.89999997615814 0.25
v 0.34999999403954 0.89999997615814 0.05000000074506
v 0.34999999403954 1 0.25
v 0.34999999403954 1 0.05000000074506
v 0.34999999403954 1 -0.44999998807907
v 0.34999999403954 1 -0.55000001192093
v 0.34999999403954 1.10000002384186 0.05000000074506
v 0.34999999403954 1.10000002384186 -0.44999998807907
v 0.44999998807907 0 0.34999999403954
v 0.44999998807907 0 0.15000000596046
v 0.44999998807907 0.69999998807907 0.15000000596046
v 0.44999998807907 0.69999998807907 0.05000000074506
v 0.44999998807907 0.80000001192093 0.34999999403954
v 0.44999998807907 0.80000001192093 0.25
v 0.44999998807907 0.80000001192093 0.05000000074506
v 0.44999998807907 0.80000001192093 -0.05000000074506
v 0.44999998807907 0.80000001192093 -0.34999999403954
v 0.44999998807907 0.80000001192093 -0.44999998807907
v 0.44999998807907 0.89999997615814 0.25
v 0.44999998807907 0.89999997615814 0.05000000074506
v 0.44999998807907 0.89999997615814 -0.05000000074506
v 0.44999998807907 0.89999997615814 -0.34999999403954
v 0.44999998807907 1 0.05000000074506
v 0.44999998807907 1 -0.44999998807907
v 0.55000001192093 0 0.15000000596046
v 0.55000001192093 0 -0.44999998807907
v 0.55000001192093 0.69999998807907 0.15000000596046
v 0.55000001192093 0.69999998807907 0.05000000074506
v 0.55000001192093 0.80000001192093 0.05000000074506
v 0.55000001192093 0.80000001192093 -0.05000000074506
v 0.55000001192093 0.80000001192093 -0.34999999403954
v 0.55000001192093 0.80000001192093 -0.44999998807907
v 0.55000001192093 0.89999997615814 -0.05000000074506
v 0.55000001192093 0.89999997615814 -0.34999999403954
# 91 vertices

vn -1 0 0
vn 1 0 0
vn 0 0 1
vn 0 0 -1
vn 0 -1 0
vn 0 1 0
# 6 normals

vt 0.09960939735174 0.5 0
# 1 texture coordinate

o Polygon
usemtl palette
f 3/1/1 2/1/1 1/1/1
f 4/1/1 2/1/1 3/1/1
f 9/1/1 6/1/1 5/1/1
f 10/1/1 6/1/1 9/1/1
f 11/1/1 6/1/1 10/1/1
f 12/1/1 6/1/1 11/1/1
f 13/1/1 8/1/1 7/1/1
f 14/1/1 8/1/1 13/1/1
f 15/1/1 13/1/1 12/1/1
f 16/1/1 13/1/1 15/1/1
f 19/1/1 18/1/1 17/1/1
f 20/1/1 18/1/1 19/1/1
f 21/1/2 22/1/2 23/1/2
f 23/1/2 22/1/2 24/1/2
f 25/1/2 26/1/2 27/1/2
f 27/1/2 26/1/2 28/1/2
f 29/1/2 30/1/2 31/1/2
f 31/1/2 30/1/2 32/1/2
f 33/1/2 34/1/2 35/1/2
f 35/1/2 34/1/2 36/1/2
f 36/1/2 37/1/2 38/1/2
f 38/1/2 37/1/2 39/1/2
f 40/1/2 41/1/2 42/1/2
f 42/1/2 41/1/2 43/1/2
f 43/1/2 44/1/2 45/1/2
f 45/1/2 44/1/2 46/1/2
f 46/1/2 47/1/2 48/1/2
f 48/1/2 47/1/2 49/1/2
f 50/1/2 51/1/2 54/1/2
f 54/1/2 51/1/2 55/1/2
f 55/1/2 56/1/2 57/1/2
f 57/1/2 56/1/2 58/1/2
f 58/1/2 59/1/2 60/1/2
f 60/1/2 59/1/2 61/1/2
f 52/1/2 53/1/2 62/1/2
f 62/1/2 53/1/2 63/1/2
f 61/1/2 62/1/2 64/1/2
f 64/1/2 62/1/2 65/1/2
f 66/1/2 67/1/2 68/1/2
f 66/1/2 68/1/2 70/1/2
f 68/1/2 69/1/2 70/1/2
f 70/1/2 69/1/2 71/1/2
f 71/1/2 69/1/2 72/1/2
f 71/1/2 72/1/2 76/1/2
f 72/1/2 73/1/2 76/1/2
f 76/1/2 73/1/2 77/1/2
f 77/1/2 73/1/2 78/1/2
f 74/1/2 75/1/2 79/1/2
f 77/1/2 78/1/2 80/1/2
f 78/1/2 79/1/2 80/1/2
f 79/1/2 75/1/2 81/1/2
f 80/1/2 79/1/2 81/1/2
f 82/1/2 83/1/2 84/1/2
f 84/1/2 83/1/2 85/1/2
f 85/1/2 83/1/2 86/1/2
f 86/1/2 83/1/2 87/1/2
f 87/1/2 83/1/2 88/1/2
f 88/1/2 83/1/2 89/1/2
f 87/1/2 88/1/2 90/1/2
f 90/1/2 88/1/2 91/1/2
f 17/1/3 9/1/3 5/1/3
f 21/1/3 17/1/3 5/1/3
f 21/1/3 19/1/3 17/1/3
f 23/1/3 19/1/3 21/1/3
f 25/1/3 21/1/3 5/1/3
f 27/1/3 21/1/3 25/1/3
f 29/1/3 25/1/3 5/1/3
f 31/1/3 25/1/3 29/1/3
f 18/1/3 11/1/3 10/1/3
f 20/1/3 11/1/3 18/1/3
f 24/1/3 11/1/3 20/1/3
f 28/1/3 24/1/3 22/1/3
f 32/1/3 28/1/3 26/1/3
f 33/1/3 11/1/3 24/1/3
f 33/1/3 24/1/3 28/1/3
f 33/1/3 28/1/3 32/1/3
f 35/1/3 11/1/3 33/1/3
f 40/1/3 32/1/3 30/1/3
f 40/1/3 33/1/3 32/1/3
f 42/1/3 33/1/3 40/1/3
f 50/1/3 40/1/3 30/1/3
f 54/1/3 40/1/3 50/1/3
f 6/1/3 3/1/3 1/1/3
f 12/1/3 3/1/3 6/1/3
f 36/1/3 15/1/3 12/1/3
f 38/1/3 15/1/3 36/1/3
f 43/1/3 36/1/3 34/1/3
f 45/1/3 36/1/3 43/1/3
f 55/1/3 43/1/3 41/1/3
f 57/1/3 43/1/3 55/1/3
f 66/1/3 55/1/3 51/1/3
f 70/1/3 55/1/3 66/1/3
f 46/1/3 39/1/3 37/1/3
f 48/1/3 39/1/3 46/1/3
f 58/1/3 46/1/3 44/1/3
f 60/1/3 46/1/3 58/1/3
f 71/1/3 58/1/3 56/1/3
f 76/1/3 58/1/3 71/1/3
f 82/1/3 68/1/3 67/1/3
f 84/1/3 68/1/3 82/1/3
f 61/1/3 49/1/3 47/1/3
f 64/1/3 49/1/3 61/1/3
f 77/1/3 61/1/3 59/1/3
f 80/1/3 61/1/3 77/1/3
f 85/1/3 72/1/3 69/1/3
f 86/1/3 72/1/3 85/1/3
f 87/1/3 78/1/3 73/1/3
f 90/1/3 78/1/3 87/1/3
f 74/1/4 79/1/4 88/1/4
f 88/1/4 79/1/4 91/1/4
f 2/1/4 4/1/4 7/1/4
f 7/1/4 4/1/4 13/1/4
f 13/1/4 16/1/4 62/1/4
f 62/1/4 16/1/4 65/1/4
f 52/1/4 62/1/4 75/1/4
f 75/1/4 62/1/4 81/1/4
f 52/1/4 75/1/4 83/1/4
f 83/1/4 75/1/4 89/1/4
f 8/1/4 14/1/4 53/1/4
f 53/1/4 14/1/4 63/1/4
f 30/1/5 29/1/5 5/1/5
f 6/1/5 30/1/5 5/1/5
f 6/1/5 50/1/5 30/1/5
f 51/1/5 50/1/5 6/1/5
f 67/1/5 6/1/5 1/1/5
f 67/1/5 66/1/5 51/1/5
f 67/1/5 51/1/5 6/1/5
f 2/1/5 67/1/5 1/1/5
f 2/1/5 82/1/5 67/1/5
f 7/1/5 82/1/5 2/1/5
f 52/1/5 82/1/5 7/1/5
f 83/1/5 82/1/5 52/1/5
f 8/1/5 52/1/5 7/1/5
f 53/1/5 52/1/5 8/1/5
f 25/1/6 31/1/6 26/1/6
f 26/1/6 31/1/6 32/1/6
f 68/1/6 84/1/6 69/1/6
f 69/1/6 84/1/6 85/1/6
f 9/1/6 17/1/6 10/1/6
f 10/1/6 17/1/6 18/1/6
f 21/1/6 27/1/6 22/1/6
f 22/1/6 27/1/6 28/1/6
f 40/1/6 54/1/6 41/1/6
f 41/1/6 54/1/6 55/1/6
f 55/1/6 70/1/6 56/1/6
f 56/1/6 70/1/6 71/1/6
f 72/1/6 86/1/6 73/1/6
f 73/1/6 86/1/6 87/1/6
f 74/1/6 88/1/6 75/1/6
f 75/1/6 88/1/6 89/1/6
f 19/1/6 23/1/6 20/1/6
f 20/1/6 23/1/6 24/1/6
f 33/1/6 42/1/6 34/1/6
f 34/1/6 42/1/6 43/1/6
f 43/1/6 57/1/6 44/1/6
f 44/1/6 57/1/6 58/1/6
f 58/1/6 76/1/6 59/1/6
f 59/1/6 76/1/6 77/1/6
f 78/1/6 90/1/6 79/1/6
f 79/1/6 90/1/6 91/1/6
f 11/1/6 35/1/6 12/1/6
f 12/1/6 35/1/6 36/1/6
f 36/1/6 45/1/6 37/1/6
f 37/1/6 45/1/6 46/1/6
f 46/1/6 60/1/6 47/1/6
f 47/1/6 60/1/6 61/1/6
f 3/1/6 12/1/6 4/1/6
f 4/1/6 12/1/6 13/1/6
f 61/1/6 80/1/6 62/1/6
f 62/1/6 80/1/6 81/1/6
f 13/1/6 62/1/6 14/1/6
f 14/1/6 62/1/6 63/1/6
f 15/1/6 38/1/6 39/1/6
f 39/1/6 48/1/6 49/1/6
f 15/1/6 39/1/6 16/1/6
f 49/1/6 64/1/6 16/1/6
f 39/1/6 49/1/6 16/1/6
f 16/1/6 64/1/6 65/1/6

